<?xml version="1.0" encoding="UTF-8" standalone="no"?>
<!-- Created with Inkscape (http://www.inkscape.org/) -->

<svg
   xmlns:dc="http://purl.org/dc/elements/1.1/"
   xmlns:cc="http://creativecommons.org/ns#"
   xmlns:rdf="http://www.w3.org/1999/02/22-rdf-syntax-ns#"
   xmlns:svg="http://www.w3.org/2000/svg"
   xmlns="http://www.w3.org/2000/svg"
   xmlns:inkscape="http://www.inkscape.org/namespaces/inkscape"
   version="1.0"
   width="74.900002"
   height="74.900002"
   viewBox="0 0 74.9 74.9"
   id="svg3310"
   xml:space="preserve"><defs
   id="defs9" /><metadata
   id="metadata10"><rdf:RDF><cc:Work
       rdf:about=""><dc:format>image/svg+xml</dc:format><dc:type
         rdf:resource="http://purl.org/dc/dcmitype/StillImage" /><dc:title /></cc:Work></rdf:RDF></metadata>
<circle
   cx="36.972"
   cy="37.450001"
   r="28.563"
   transform="translate(0.478,-7.6294e-7)"
   id="circle"
   style="fill:#ff6319" />
<g
   id="routenum"
   style="fill:#ffffff"><path
     d="m 32.423,45.061 h 4.026 c 1.078,4e-6 2.035,-0.11 2.871,-0.33 0.85799,-0.242 1.562,-0.649 2.112,-1.221 0.57198,-0.57199 1.001,-1.353 1.287,-2.343 0.30798,-0.98999 0.46198,-2.244 0.462,-3.762 -1.7e-5,-1.144 -0.13202,-2.189 -0.396,-3.135 C 42.52098,33.32402 42.11398,32.521 41.564,31.861 41.01398,31.17902 40.31,30.662 39.452,30.31 38.59399,29.93602 37.56,29.74902 36.35,29.749 H 32.423 V 45.061 M 28.001,25.657 h 8.25 c 2.024,2.3e-5 3.762,0.29702 5.214,0.891 1.474,0.59402 2.673,1.419 3.597,2.475 0.94598,1.034 1.639,2.277 2.079,3.729 0.43998,1.43 0.65998,2.981 0.66,4.653 -2.2e-5,3.85 -0.91302,6.776 -2.739,8.778 -1.804,1.98 -4.466,2.97 -7.986,2.97 H 28.001 V 25.657"
     inkscape:connector-curvature="0"
     id="path2985"
     style="fill:#ffffff" /></g>
</svg>